<?xml version="1.0" standalone="no"?>
<!DOCTYPE svg PUBLIC "-//W3C//DTD SVG 20010904//EN"
 "http://www.w3.org/TR/2001/REC-SVG-20010904/DTD/svg10.dtd">
<svg version="1.0" xmlns="http://www.w3.org/2000/svg"
 width="512.000000pt" height="512.000000pt" viewBox="0 0 512.000000 512.000000"
 preserveAspectRatio="xMidYMid meet">

<g transform="translate(0.000000,512.000000) scale(0.100000,-0.100000)"
fill="#000000" stroke="none">
<path d="M986 5097 c-26 -26 -26 -29 -26 -170 l0 -143 -57 -18 c-154 -49 -306
-157 -406 -289 -74 -98 -105 -154 -138 -250 l-28 -82 -112 -40 c-108 -39 -113
-42 -145 -90 -51 -74 -69 -137 -69 -235 0 -99 15 -134 90 -218 82 -91 219
-173 428 -256 103 -41 201 -85 218 -97 65 -46 71 -109 39 -359 -26 -193 -28
-436 -5 -565 44 -247 136 -423 325 -620 178 -185 180 -191 180 -549 0 -236 -2
-264 -18 -289 -27 -40 -75 -72 -161 -108 -103 -42 -161 -81 -221 -146 -92
-101 -144 -241 -156 -425 -7 -94 -6 -97 19 -122 l26 -26 351 0 351 0 24 25
c33 32 33 78 0 110 l-24 25 -295 0 -295 0 5 38 c17 121 79 247 151 307 18 14
73 44 123 65 118 50 150 71 204 131 72 80 76 102 76 413 0 307 -7 354 -68 470
-26 50 -66 100 -136 171 -118 120 -173 195 -226 308 -97 206 -115 444 -64 827
19 149 14 279 -14 342 -36 83 -107 127 -364 228 -82 33 -176 76 -209 95 -73
45 -165 128 -186 168 -18 36 -13 101 12 165 17 41 17 41 141 82 125 42 154 61
154 103 0 39 53 175 95 242 76 122 199 227 330 283 l50 21 5 -91 c4 -79 8 -92
29 -109 32 -26 77 -24 106 6 l25 24 0 237 c0 268 -9 249 88 191 319 -191 574
-593 741 -1167 49 -166 72 -212 137 -269 60 -52 119 -73 284 -100 525 -87 926
-295 1110 -577 143 -219 269 -659 324 -1134 19 -159 36 -389 36 -478 0 -53 4
-67 25 -87 33 -34 78 -33 112 1 l26 26 -7 157 c-30 678 -187 1323 -396 1625
-108 157 -313 322 -523 421 -189 90 -444 167 -662 201 -161 25 -182 31 -226
71 -32 29 -43 50 -65 122 -81 272 -147 447 -234 621 -189 378 -441 646 -721
767 -113 49 -150 53 -183 20z"/>
<path d="M4590 3994 c-253 -31 -476 -113 -608 -223 -166 -138 -276 -435 -298
-803 -7 -116 -7 -116 19 -142 33 -33 79 -34 111 -3 20 20 24 37 30 131 14 215
60 415 125 544 93 184 294 291 622 332 53 7 135 11 182 9 92 -4 119 -17 161
-73 29 -39 29 -133 0 -172 -44 -59 -65 -67 -192 -75 -79 -5 -134 -13 -169 -27
-159 -61 -258 -169 -310 -337 -25 -83 -25 -334 0 -455 43 -202 104 -339 219
-491 231 -302 327 -490 375 -727 25 -121 24 -489 0 -650 -57 -365 -187 -567
-416 -644 l-66 -23 -1262 -3 -1263 -2 0 22 c0 36 54 140 94 181 86 87 191 117
409 117 154 0 158 1 182 25 42 41 34 76 -31 143 -135 136 -216 309 -249 532
-36 237 -4 382 109 496 89 88 233 147 396 161 59 5 79 11 97 29 31 32 30 78
-3 111 -25 25 -29 26 -108 19 -341 -26 -593 -216 -651 -491 -30 -143 -13 -364
41 -537 26 -83 99 -238 135 -289 10 -15 19 -30 19 -33 0 -3 -24 -6 -52 -6
-138 -1 -296 -63 -397 -155 -98 -91 -160 -240 -161 -383 0 -43 5 -58 25 -77
l24 -25 1288 0 c755 0 1315 4 1353 10 159 23 282 83 389 191 135 134 214 320
258 603 25 159 25 562 0 696 -48 255 -144 452 -366 750 -55 74 -114 160 -130
191 -92 170 -143 460 -111 630 14 76 64 173 108 209 68 56 116 71 247 80 100
7 130 12 172 33 74 38 106 69 144 139 31 58 34 70 34 148 0 78 -3 90 -34 148
-38 69 -80 110 -151 144 -38 18 -65 22 -175 24 -71 1 -146 0 -165 -2z"/>
</g>
</svg>
