<?xml version="1.0" standalone="no"?>
<!DOCTYPE svg PUBLIC "-//W3C//DTD SVG 20010904//EN"
 "http://www.w3.org/TR/2001/REC-SVG-20010904/DTD/svg10.dtd">
<svg version="1.0" xmlns="http://www.w3.org/2000/svg"
 width="467.000000pt" height="279.000000pt" viewBox="0 0 467.000000 279.000000"
 preserveAspectRatio="xMidYMid meet">

<g transform="translate(0.000000,279.000000) scale(0.100000,-0.100000)"
fill="#000000" stroke="none">
<path d="M2424 2151 c-96 -27 -190 -105 -248 -203 -26 -45 -56 -152 -56 -204
0 -27 -6 -33 -48 -53 l-48 -23 -49 31 c-87 55 -182 34 -238 -52 -47 -72 -30
-170 38 -223 27 -20 33 -33 38 -76 14 -118 146 -195 246 -143 59 30 107 118
99 178 -2 16 7 27 37 43 l39 23 41 -33 c182 -149 420 -138 586 27 163 164 162
436 -4 601 -114 114 -272 153 -433 107z m214 -107 c48 -28 67 -64 67 -125 0
-54 1 -57 35 -75 92 -51 97 -190 7 -244 -59 -37 -149 -21 -190 33 -11 15 -34
5 -222 -97 l-210 -114 3 -37 c4 -53 -14 -100 -54 -135 -29 -25 -43 -30 -85
-30 -27 0 -63 7 -79 15 -42 22 -73 87 -67 141 4 39 2 42 -29 58 -97 46 -99
202 -3 252 48 24 120 15 167 -23 l37 -30 213 103 213 103 -8 28 c-20 70 1 133
56 170 41 27 110 31 149 7z"/>
</g>
</svg>
